<?xml version="1.0" standalone="no"?>
<!DOCTYPE svg PUBLIC "-//W3C//DTD SVG 20010904//EN"
 "http://www.w3.org/TR/2001/REC-SVG-20010904/DTD/svg10.dtd">
<svg version="1.0" xmlns="http://www.w3.org/2000/svg"
 width="1164.000000pt" height="477.000000pt" viewBox="0 0 1164.000000 477.000000"
 preserveAspectRatio="xMidYMid meet">

<g transform="translate(0.000000,477.000000) scale(0.100000,-0.100000)"
fill="#000000" stroke="none">
<path d="M2612 4468 c-12 -24 -26 -50 -32 -58 -23 -35 -130 -222 -130 -227 0
-3 -29 -53 -64 -112 -35 -58 -76 -128 -91 -156 -15 -27 -64 -113 -110 -190
-94 -160 -221 -379 -258 -445 -31 -55 -174 -299 -187 -320 -34 -51 -32 -56 41
-183 38 -67 74 -129 79 -137 29 -45 250 -423 250 -426 0 -2 35 -64 79 -137 43
-72 88 -150 100 -172 12 -22 35 -62 52 -90 16 -27 35 -61 42 -75 6 -14 16 -30
22 -36 5 -6 19 -28 30 -50 11 -21 23 -40 28 -42 4 -2 7 -8 7 -14 0 -6 22 -48
50 -94 27 -46 50 -87 50 -93 0 -5 3 -11 8 -13 4 -2 18 -24 31 -49 l24 -46 141
-6 c180 -9 1535 -7 1643 1 l82 7 -44 70 c-25 39 -49 79 -55 90 -6 11 -18 34
-28 50 l-19 30 -781 5 -782 5 -46 80 c-26 44 -51 82 -56 83 -4 2 -8 8 -8 14 0
5 -18 40 -39 76 -21 37 -51 90 -66 117 -15 28 -41 69 -56 93 -16 24 -29 45
-29 47 0 3 -186 327 -241 419 -10 17 -24 42 -32 56 -20 37 -50 88 -87 150 -18
30 -45 78 -60 105 -15 28 -35 64 -45 80 l-17 30 109 185 c131 222 256 437 291
499 13 25 38 65 53 89 16 24 29 46 29 49 0 3 29 53 64 112 35 58 74 124 86
146 12 22 51 91 87 153 l66 112 773 0 772 0 39 -67 c21 -36 50 -87 65 -112 16
-25 31 -53 35 -61 4 -8 40 -70 80 -137 40 -68 73 -125 73 -127 0 -3 13 -24 29
-48 15 -24 43 -70 61 -103 18 -33 45 -80 60 -105 29 -47 182 -313 210 -365 30
-56 45 -75 58 -75 8 0 10 -5 6 -12 -6 -10 -4 -10 7 -2 18 15 85 24 182 25 75
1 77 2 71 23 -3 11 -13 28 -20 37 -8 8 -14 19 -14 22 0 4 -12 26 -27 50 -15
23 -32 51 -38 62 -52 96 -102 183 -180 315 -50 85 -113 193 -140 240 -27 47
-122 213 -212 369 -90 156 -163 287 -163 291 0 4 -8 14 -18 23 -17 16 -97 17
-943 17 l-925 0 -22 -42z"/>
<path d="M7900 3154 c0 -9 120 -206 138 -226 14 -17 64 -18 788 -18 l773 0 45
-75 c25 -42 46 -78 46 -80 0 -2 29 -53 64 -112 144 -245 281 -480 301 -518 12
-22 65 -114 119 -204 53 -90 96 -165 96 -167 0 -2 25 -44 55 -94 30 -50 55
-95 55 -100 0 -5 -25 -50 -55 -100 -30 -50 -55 -92 -55 -95 0 -2 -58 -102
-128 -222 -184 -312 -307 -522 -332 -568 -12 -22 -31 -52 -41 -67 -11 -14 -19
-28 -19 -31 0 -7 -136 -235 -151 -253 -10 -12 -126 -14 -773 -14 -418 0 -766
4 -772 8 -11 7 -234 375 -234 386 0 4 -11 23 -24 44 -21 34 -112 189 -159 272
-10 19 -48 83 -83 143 -35 59 -64 110 -64 112 0 3 -12 24 -27 48 -15 23 -38
62 -51 87 -14 25 -35 59 -47 75 l-23 31 -73 -7 c-41 -4 -102 -8 -136 -8 -35
-1 -63 -3 -63 -6 0 -9 50 -106 75 -145 20 -32 112 -189 158 -270 28 -50 176
-302 187 -320 6 -8 13 -22 17 -30 4 -8 23 -42 43 -75 20 -33 50 -85 67 -115
17 -30 46 -82 65 -115 20 -33 69 -118 111 -190 l75 -130 955 -3 955 -2 48 82
c27 46 57 99 67 118 11 19 35 62 55 95 19 33 48 85 65 115 16 30 36 62 43 71
8 8 14 18 14 21 0 3 37 68 82 144 45 76 99 171 121 209 22 39 81 140 132 225
51 85 101 172 111 193 10 20 21 37 26 37 4 0 8 5 8 11 0 6 22 48 49 93 27 44
56 96 65 114 20 38 31 12 -111 255 -51 87 -93 160 -93 162 0 1 -44 77 -97 168
-137 231 -213 362 -249 428 -18 31 -64 112 -104 179 -40 67 -86 148 -104 179
-17 32 -58 103 -91 159 l-60 102 -927 0 c-511 0 -928 -3 -928 -6z"/>
<path d="M2915 2691 c-17 -4 -42 -15 -56 -24 -49 -32 -54 -56 -54 -251 0 -175
1 -182 24 -215 42 -58 70 -65 321 -71 l225 -5 3 -75 c2 -41 0 -85 -3 -97 l-5
-23 -286 0 -287 0 7 -42 c9 -55 26 -80 73 -109 37 -24 42 -24 308 -24 296 0
304 1 350 63 18 25 20 43 20 217 0 215 -3 227 -81 265 -37 18 -60 20 -255 20
-154 0 -218 3 -227 12 -16 16 -16 160 0 176 9 9 86 12 285 12 l273 0 0 41 c0
50 -22 90 -64 115 -28 17 -56 19 -286 21 -140 1 -269 -2 -285 -6z"/>
<path d="M3760 2693 c0 -4 0 -201 -1 -438 0 -236 0 -445 0 -462 l1 -33 380 0
380 0 0 85 0 85 -290 0 -290 0 2 293 3 292 288 3 287 2 0 89 0 88 -380 2
c-209 1 -380 -1 -380 -6z"/>
<path d="M4717 2693 c-4 -3 -7 -215 -7 -470 l0 -463 90 0 90 0 0 369 c0 301 3
371 14 380 9 8 72 11 202 9 l189 -3 3 -98 c2 -72 -1 -98 -10 -102 -7 -2 -87
-5 -178 -7 -103 -2 -164 -7 -163 -13 2 -5 92 -128 200 -272 l198 -263 114 0
c89 0 111 3 104 13 -138 185 -202 268 -225 295 -33 39 -36 62 -7 62 11 0 44
11 72 25 81 38 87 55 87 255 0 250 -14 269 -194 281 -137 10 -571 11 -579 2z"/>
<path d="M5835 2689 c-21 -5 -50 -20 -63 -32 -52 -48 -52 -51 -52 -433 0 -343
1 -358 21 -390 11 -19 35 -44 52 -56 32 -23 33 -23 402 -23 512 1 479 -21 483
323 l3 232 -278 0 c-247 -1 -276 -2 -259 -15 11 -8 24 -15 29 -15 9 0 22 -5
132 -56 33 -15 89 -40 125 -55 l65 -26 0 -104 0 -104 -286 -3 c-231 -2 -288 0
-298 11 -16 20 -17 543 -1 563 11 12 73 14 391 14 l379 0 0 25 c0 62 -46 123
-109 144 -42 14 -676 14 -736 0z"/>
<path d="M6887 2693 c-4 -3 -7 -215 -7 -470 l0 -463 380 0 380 0 0 85 0 85
-290 0 -290 0 2 293 3 292 288 3 288 2 -3 88 -3 87 -371 3 c-204 1 -373 -1
-377 -5z"/>
<path d="M7837 2693 c-45 -5 -49 11 41 -208 35 -88 80 -198 98 -245 18 -47 68
-173 111 -280 l79 -195 96 -3 c93 -3 97 -2 103 20 4 13 13 37 20 53 27 64 75
183 100 250 15 39 35 88 45 110 9 22 24 58 33 80 16 41 82 204 97 240 4 11 19
47 31 80 13 33 27 65 32 72 18 25 -6 31 -110 30 l-106 -2 -24 -65 c-34 -92
-75 -206 -122 -340 -22 -63 -45 -122 -50 -131 -5 -9 -14 -34 -20 -55 -13 -45
-27 -71 -35 -63 -4 3 -27 62 -52 130 -25 68 -52 140 -59 159 -7 19 -30 82 -50
140 -21 58 -47 132 -59 165 l-22 60 -69 1 c-39 1 -87 -1 -108 -3z"/>
<path d="M9028 2671 c-6 -14 -14 -35 -19 -46 -4 -11 -18 -45 -30 -75 -12 -30
-27 -68 -34 -85 -7 -16 -29 -73 -49 -125 -20 -52 -43 -109 -50 -125 -8 -17
-26 -62 -41 -100 -15 -39 -51 -131 -81 -206 -30 -75 -54 -139 -54 -143 0 -3
49 -6 108 -6 l109 0 33 98 c18 53 36 102 41 107 4 6 25 64 48 130 22 66 56
164 76 219 19 54 35 100 35 102 0 13 21 1 31 -17 21 -39 95 -265 91 -277 -2
-8 -30 -12 -82 -12 -65 0 -79 -3 -85 -17 -9 -20 -55 -147 -55 -150 0 -1 66 -4
147 -5 l147 -3 19 -50 c10 -27 23 -66 30 -85 l12 -35 108 -3 c61 -1 107 1 107
7 0 7 -141 368 -170 436 -5 11 -19 45 -30 75 -12 30 -35 88 -51 128 -16 39
-43 107 -60 150 -60 150 -42 133 -147 137 -93 3 -93 3 -104 -24z"/>
<path d="M7124 2311 c-2 -2 -4 -42 -4 -88 l0 -83 235 0 235 0 0 85 0 84 -231
3 c-127 2 -233 1 -235 -1z"/>
<path d="M4002 2228 l3 -83 230 0 230 0 3 83 3 82 -236 0 -236 0 3 -82z"/>
<path d="M7016 1487 c3 -10 9 -15 12 -12 3 3 0 11 -7 18 -10 9 -11 8 -5 -6z"/>
</g>
</svg>
